<?xml version="1.0" encoding="UTF-8" standalone="no"?>
<svg
   width="960pt"
   height="960pt"
   viewBox="0 0 960 960"
   version="1.1"
   id="svg12"
   sodipodi:docname="wolf-logo-vector.svg"
   inkscape:version="1.1.1 (3bf5ae0d25, 2021-09-20)"
   xmlns:inkscape="http://www.inkscape.org/namespaces/inkscape"
   xmlns:sodipodi="http://sodipodi.sourceforge.net/DTD/sodipodi-0.dtd"
   xmlns="http://www.w3.org/2000/svg"
   xmlns:svg="http://www.w3.org/2000/svg">
  <defs
     id="defs16" />
  <sodipodi:namedview
     id="namedview14"
     pagecolor="#ffffff"
     bordercolor="#666666"
     borderopacity="1.0"
     inkscape:pageshadow="2"
     inkscape:pageopacity="0.0"
     inkscape:pagecheckerboard="0"
     inkscape:document-units="pt"
     showgrid="false"
     inkscape:zoom="4.0375"
     inkscape:cx="786.37771"
     inkscape:cy="728.79257"
     inkscape:window-width="1920"
     inkscape:window-height="991"
     inkscape:window-x="329"
     inkscape:window-y="1431"
     inkscape:window-maximized="1"
     inkscape:current-layer="svg12" />
  <circle
     style="fill:#ffffff;stroke:#000000;stroke-width:1.461;stroke-linecap:round;stroke-linejoin:bevel;stroke-opacity:1"
     id="path870"
     cx="581.48401"
     cy="537.64178"
     r="50.057281"
     inkscape:export-filename="C:\Users\mdelu\Downloads\wolf.png"
     inkscape:export-xdpi="300"
     inkscape:export-ydpi="300" />
  <g
     id="#ffffffff" />
  <g
     id="#353d48ff"
     inkscape:export-filename="C:\Users\mdelu\Downloads\wolf.png"
     inkscape:export-xdpi="300"
     inkscape:export-ydpi="300"
     transform="matrix(0.16878995,0,0,0.16878995,500.44471,455.9949)">
    <path
       fill="#353d48"
       opacity="1"
       d="m 404.17,210.35 c 53.84,-15.29 112.26,-13.82 165.3,4.01 61.89,20.57 115.86,63.64 149.92,119.21 20.67,33.51 34.15,71.43 39.18,110.48 4.85,37.01 2.17,74.94 -7.63,110.95 -0.57,0.79 -0.1,2.79 -1.43,2.81 -12.55,-18.73 -25.94,-36.9 -40.08,-54.45 12.1,-1.83 24.28,-3.85 36.56,-3.63 -11.38,-14.4 -24.99,-26.84 -38.03,-39.7 -24.23,-22.88 -48.67,-45.66 -75.08,-66.02 8.06,-17.53 14.83,-35.7 19.53,-54.43 1.73,-7.69 3.64,-15.63 2.5,-23.56 -26.68,-2.4 -53.78,-1.07 -79.92,4.9 -15.79,3.66 -31.35,8.78 -45.63,16.51 -1.36,0.69 -2.96,0.48 -4.42,0.62 -23.67,0.29 -47.35,0.75 -71,1.91 -7.61,0.6 -15.5,0.38 -22.7,3.3 -14.49,5.63 -27.73,13.93 -41.09,21.74 -24.72,1.74 -49.48,3.24 -74.17,5.48 -16.8,1.67 -33.73,2.79 -50.26,6.37 -5.23,0.76 -7.57,5.99 -9.54,10.24 -1.11,2.83 -2.84,5.96 -1.59,9.04 4.65,13.77 11.46,26.74 19.33,38.94 1.72,2.75 5.08,3.67 7.66,5.4 4.16,2.18 8.02,5.06 12.38,6.8 19.6,0.59 39.25,0.32 58.85,1.02 2.37,0.81 1.83,4.87 -0.81,4.72 -19.91,2.1 -39.86,3.95 -59.79,5.96 5.62,4.74 11.59,9.12 17.84,12.99 21.03,0.91 42.11,3.97 62.08,10.8 15.5,5.36 30.56,13.14 42.07,25.04 11.04,11.2 17.69,26.48 18.59,42.17 1.36,19.57 -4.28,38.79 -11.74,56.67 15.15,-1.22 29.24,-7.61 43.22,-13.1 -3.43,18.91 -9.65,37.5 -19.96,53.81 -16.67,26.91 -44.91,46.72 -76.36,51.62 -37.19,6.25 -76.82,-8.17 -101.69,-36.43 -22.72,-26.44 -40.25,-57.29 -51.65,-90.23 -16.55,-47.84 -19.75,-100.2 -9.22,-149.72 13.12,-62.5 48.63,-119.84 98.27,-159.95 29.5,-24 63.9,-41.96 100.51,-52.29 z"
       id="path3" />
    <path
       fill="#353d48"
       opacity="1"
       d="m 600.4,339.59 c 9.4,-1.62 18.84,-3.36 28.41,-3.5 -5.16,5.81 -11.19,10.75 -17.13,15.74 5.7,4.05 11.38,8.13 17.09,12.17 -9.86,7.84 -19.63,15.77 -29.52,23.56 -11.04,-5.32 -22.18,-10.4 -33.22,-15.72 9.37,-0.84 18.77,-1.35 28.13,-2.23 -16.5,-5.84 -32.99,-11.75 -49.43,-17.75 18.37,-4.84 37,-8.74 55.67,-12.27 z"
       id="path5" />
    <path
       fill="#353d48"
       opacity="1"
       d="m 441.7,370.79 c 2.89,-1.4 6.18,-0.89 9.29,-1.03 11.88,-0.01 23.79,-0.35 35.67,0.26 -2.48,2.93 -6.17,4.3 -9.44,6.1 -10.54,5 -21.13,10.14 -32.33,13.45 -8.68,0.12 -16.5,-4.7 -24.04,-8.48 6.92,-3.5 13.8,-7.07 20.85,-10.3 z"
       id="path7"
       style="fill:#008080" />
    <path
       fill="#353d48"
       opacity="1"
       d="m 265.66,383.51 c 17.34,-1.01 34.67,-2.06 52.01,-3.07 -0.04,0.59 -0.11,1.75 -0.15,2.34 -7.83,3.13 -15.91,5.67 -23.66,8.96 -7.31,10.37 -14.11,21.11 -21.27,31.59 -5,-9.42 -9.1,-19.32 -12.73,-29.35 1.75,-3.59 3.73,-7.06 5.8,-10.47 z"
       id="path9" />
  </g>
</svg>
